<svg id="Layer_1" data-name="Layer 1" xmlns="http://www.w3.org/2000/svg" xmlns:xlink="http://www.w3.org/1999/xlink" viewBox="0 0 499 240.12"><defs><style>.cls-1{fill:url(#linear-gradient);}.cls-2{fill:url(#linear-gradient-2);}.cls-3{fill:url(#linear-gradient-3);}.cls-4{fill:url(#linear-gradient-4);}.cls-5{fill:url(#linear-gradient-5);}.cls-6{fill:url(#linear-gradient-6);}.cls-7{fill:url(#linear-gradient-7);}.cls-8{fill:url(#linear-gradient-8);}.cls-9{fill:url(#linear-gradient-9);}.cls-10{fill:url(#linear-gradient-10);}.cls-11{fill:url(#linear-gradient-11);}.cls-12{fill:url(#linear-gradient-12);}.cls-13{fill:url(#linear-gradient-13);}.cls-14{fill:url(#linear-gradient-14);}.cls-15{fill:url(#linear-gradient-15);}.cls-16{fill:url(#linear-gradient-16);}.cls-17{fill:url(#linear-gradient-17);}.cls-18{fill:url(#linear-gradient-18);}.cls-19{fill:url(#linear-gradient-19);}.cls-20{fill:url(#linear-gradient-20);}.cls-21{fill:url(#linear-gradient-21);}.cls-22{fill:url(#linear-gradient-22);}.cls-23{fill:url(#linear-gradient-23);}.cls-24{fill:url(#linear-gradient-24);}.cls-25{fill:#171133;}</style><linearGradient id="linear-gradient" x1="242.65" y1="28.29" x2="258.14" y2="28.29" gradientUnits="userSpaceOnUse"><stop offset="0" stop-color="#faa21b"/><stop offset="1" stop-color="#ec5823"/></linearGradient><linearGradient id="linear-gradient-2" x1="240.85" y1="120.76" x2="256.35" y2="120.76" xlink:href="#linear-gradient"/><linearGradient id="linear-gradient-3" x1="225.76" y1="31.37" x2="245.41" y2="31.37" xlink:href="#linear-gradient"/><linearGradient id="linear-gradient-4" x1="253.59" y1="117.69" x2="273.24" y2="117.69" xlink:href="#linear-gradient"/><linearGradient id="linear-gradient-5" x1="208.77" y1="37.39" x2="233.95" y2="37.39" xlink:href="#linear-gradient"/><linearGradient id="linear-gradient-6" x1="265.05" y1="111.67" x2="290.22" y2="111.67" xlink:href="#linear-gradient"/><linearGradient id="linear-gradient-7" x1="194.55" y1="45.79" x2="230.86" y2="45.79" xlink:href="#linear-gradient"/><linearGradient id="linear-gradient-8" x1="268.13" y1="103.25" x2="304.45" y2="103.25" xlink:href="#linear-gradient"/><linearGradient id="linear-gradient-9" x1="184.06" y1="54.94" x2="229.04" y2="54.94" xlink:href="#linear-gradient"/><linearGradient id="linear-gradient-10" x1="269.94" y1="94.11" x2="314.94" y2="94.11" xlink:href="#linear-gradient"/><linearGradient id="linear-gradient-11" x1="178.02" y1="64.3" x2="228.66" y2="64.3" xlink:href="#linear-gradient"/><linearGradient id="linear-gradient-12" x1="270.32" y1="84.75" x2="320.98" y2="84.75" xlink:href="#linear-gradient"/><linearGradient id="linear-gradient-13" x1="176.83" y1="73.63" x2="229.7" y2="73.63" xlink:href="#linear-gradient"/><linearGradient id="linear-gradient-14" x1="269.3" y1="75.43" x2="322.17" y2="75.43" xlink:href="#linear-gradient"/><linearGradient id="linear-gradient-15" x1="180.57" y1="88.45" x2="232.09" y2="88.45" xlink:href="#linear-gradient"/><linearGradient id="linear-gradient-16" x1="266.9" y1="60.61" x2="318.41" y2="60.61" xlink:href="#linear-gradient"/><linearGradient id="linear-gradient-17" x1="189" y1="102.66" x2="235.7" y2="102.66" xlink:href="#linear-gradient"/><linearGradient id="linear-gradient-18" x1="263.3" y1="46.39" x2="310" y2="46.39" xlink:href="#linear-gradient"/><linearGradient id="linear-gradient-19" x1="201.28" y1="111.32" x2="240.25" y2="111.32" xlink:href="#linear-gradient"/><linearGradient id="linear-gradient-20" x1="258.75" y1="37.73" x2="297.72" y2="37.73" xlink:href="#linear-gradient"/><linearGradient id="linear-gradient-21" x1="214.37" y1="117.47" x2="245.45" y2="117.47" xlink:href="#linear-gradient"/><linearGradient id="linear-gradient-22" x1="253.55" y1="31.59" x2="284.63" y2="31.59" xlink:href="#linear-gradient"/><linearGradient id="linear-gradient-23" x1="227.6" y1="120.68" x2="250.95" y2="120.68" xlink:href="#linear-gradient"/><linearGradient id="linear-gradient-24" x1="248.05" y1="28.37" x2="271.4" y2="28.37" xlink:href="#linear-gradient"/></defs><path class="cls-1" d="M251,15.27a59.31,59.31,0,0,1,2.67,6.38,11,11,0,0,1,.56,6.29,16.84,16.84,0,0,1-3,6.1c-1.39,1.94-3,3.91-4.36,6.07a29,29,0,0,0-4.24,14.4.21.21,0,0,0,.18.21.21.21,0,0,0,.24-.18,31.87,31.87,0,0,1,2-7,28,28,0,0,1,3.6-6.21c1.43-1.91,3.12-3.63,4.78-5.57a20,20,0,0,0,4-6.85,12.48,12.48,0,0,0,.69-4.21,19.17,19.17,0,0,0-.46-4.11,24.4,24.4,0,0,0-3-7.28,43.65,43.65,0,0,0-10-11.38.24.24,0,0,0-.23,0,.21.21,0,0,0-.1.29C246.49,6.75,249,11,251,15.27Z"/><path class="cls-2" d="M248,133.77a59.41,59.41,0,0,1-2.68-6.38,11,11,0,0,1-.56-6.29,16.84,16.84,0,0,1,3-6.1c1.4-1.94,3-3.9,4.38-6.07a29,29,0,0,0,4.23-14.39.23.23,0,0,0-.18-.22.21.21,0,0,0-.24.18,28.81,28.81,0,0,1-5.55,13.24c-1.44,1.92-3.13,3.64-4.8,5.58a19.84,19.84,0,0,0-4,6.84,12.56,12.56,0,0,0-.69,4.21,19.83,19.83,0,0,0,.46,4.11,24.55,24.55,0,0,0,3,7.28,43.69,43.69,0,0,0,10,11.38.22.22,0,0,0,.23,0,.21.21,0,0,0,.1-.29C252.5,142.29,250,138.08,248,133.77Z"/><path class="cls-3" d="M235.6,16.92a58.72,58.72,0,0,1,4.24,5.47A10.8,10.8,0,0,1,242,28.32,16.68,16.68,0,0,1,240.71,35c-.85,2.23-1.9,4.55-2.65,7a29,29,0,0,0-.36,15,.21.21,0,0,0,.22.16.21.21,0,0,0,.19-.23,33,33,0,0,1,.07-7.3,28.37,28.37,0,0,1,1.87-6.94c.89-2.22,2.07-4.32,3.18-6.62a19.94,19.94,0,0,0,2.14-7.66,12.16,12.16,0,0,0-.42-4.24,19.12,19.12,0,0,0-1.51-3.86A24.14,24.14,0,0,0,238.67,14a43.64,43.64,0,0,0-12.61-8.4.2.2,0,0,0-.23,0,.21.21,0,0,0,0,.3C229.06,9.85,232.54,13.28,235.6,16.92Z"/><path class="cls-4" d="M263.4,132.15a59.53,59.53,0,0,1-4.23-5.47,10.92,10.92,0,0,1-2.17-5.94,16.75,16.75,0,0,1,1.27-6.65c.85-2.24,1.91-4.55,2.65-7a28.84,28.84,0,0,0,.37-15,.22.22,0,0,0-.23-.16.23.23,0,0,0-.19.24,28.78,28.78,0,0,1-1.93,14.22c-.9,2.23-2.08,4.32-3.19,6.63a19.93,19.93,0,0,0-2.13,7.66,12.41,12.41,0,0,0,.43,4.24,19,19,0,0,0,1.51,3.85,24.33,24.33,0,0,0,4.76,6.26,43.83,43.83,0,0,0,12.62,8.4.24.24,0,0,0,.23,0,.22.22,0,0,0,0-.31C269.94,139.21,266.45,135.79,263.4,132.15Z"/><path class="cls-5" d="M221.15,22.47a59.88,59.88,0,0,1,5.51,4.19,11,11,0,0,1,3.64,5.17,17.09,17.09,0,0,1,.48,6.77c-.24,2.37-.66,4.89-.75,7.44a29.17,29.17,0,0,0,3.52,14.59.22.22,0,0,0,.27.09.22.22,0,0,0,.12-.27,28.89,28.89,0,0,1-1.81-14.25c.29-2.38.89-4.71,1.36-7.22a19.9,19.9,0,0,0,.08-8,12.32,12.32,0,0,0-1.51-4,19.52,19.52,0,0,0-2.45-3.32,24.26,24.26,0,0,0-6.23-4.82A44,44,0,0,0,209,14a.24.24,0,0,0-.22.09.22.22,0,0,0,.06.3C213,17.34,217.26,19.75,221.15,22.47Z"/><path class="cls-6" d="M277.83,126.58a61.1,61.1,0,0,1-5.5-4.19,10.83,10.83,0,0,1-3.63-5.17,17.06,17.06,0,0,1-.48-6.76c.24-2.38.66-4.89.75-7.44a29.14,29.14,0,0,0-3.52-14.59.22.22,0,0,0-.27-.09.22.22,0,0,0-.12.27,28.89,28.89,0,0,1,1.81,14.25c-.29,2.37-.89,4.71-1.36,7.22a20,20,0,0,0-.08,8,12.53,12.53,0,0,0,1.5,4,19.12,19.12,0,0,0,2.46,3.33,24,24,0,0,0,6.22,4.81A44,44,0,0,0,290,135a.22.22,0,0,0,.21-.09.23.23,0,0,0-.05-.31C286,131.72,281.73,129.31,277.83,126.58Z"/><path class="cls-7" d="M194.7,27c4.75,1.74,9.48,3,14,4.59a58.6,58.6,0,0,1,6.4,2.62,10.83,10.83,0,0,1,4.84,4,16.59,16.59,0,0,1,2.23,6.4c.38,2.36.62,4.9,1.19,7.39a29.13,29.13,0,0,0,7.18,13.17.23.23,0,0,0,.28,0,.21.21,0,0,0,0-.3,28.77,28.77,0,0,1-5.43-13.29c-.34-2.37-.36-4.78-.55-7.33a20.07,20.07,0,0,0-2-7.7,12.65,12.65,0,0,0-2.49-3.46,18.76,18.76,0,0,0-3.23-2.58,24.39,24.39,0,0,0-7.26-3,43.85,43.85,0,0,0-15.12-1,.21.21,0,0,0-.18.14A.22.22,0,0,0,194.7,27Z"/><path class="cls-8" d="M304.3,122.05c-4.76-1.73-9.49-3-14-4.58a60.66,60.66,0,0,1-6.4-2.62,10.85,10.85,0,0,1-4.84-4.06,16.73,16.73,0,0,1-2.22-6.41c-.39-2.36-.63-4.89-1.2-7.38a28.89,28.89,0,0,0-7.19-13.18.21.21,0,0,0-.32.27,31.66,31.66,0,0,1,3.59,6.35,28.37,28.37,0,0,1,1.84,6.94c.34,2.38.37,4.79.56,7.34a19.92,19.92,0,0,0,2,7.7,12.44,12.44,0,0,0,2.49,3.46,18.82,18.82,0,0,0,3.23,2.59,24.36,24.36,0,0,0,7.26,3,43.68,43.68,0,0,0,15.13,1,.21.21,0,0,0,.18-.14A.22.22,0,0,0,304.3,122.05Z"/><path class="cls-9" d="M184.26,42.79c5,.45,9.93.41,14.66.82a61.44,61.44,0,0,1,6.86.88,11,11,0,0,1,5.73,2.65,16.79,16.79,0,0,1,3.81,5.61c1,2.18,1.87,4.57,3.06,6.82a29.12,29.12,0,0,0,10.34,10.87.22.22,0,0,0,.28,0,.21.21,0,0,0,0-.3,29.19,29.19,0,0,1-8.68-11.44c-.93-2.2-1.58-4.52-2.42-6.93a20,20,0,0,0-3.92-6.92,12.29,12.29,0,0,0-3.3-2.7,19.44,19.44,0,0,0-3.79-1.65,24.09,24.09,0,0,0-7.79-1.06,43.57,43.57,0,0,0-14.86,3,.22.22,0,0,0-.14.18A.21.21,0,0,0,184.26,42.79Z"/><path class="cls-10" d="M314.74,106.25c-5-.44-9.93-.4-14.67-.82a59.48,59.48,0,0,1-6.86-.87,11,11,0,0,1-5.73-2.65,17.06,17.06,0,0,1-3.8-5.62c-1-2.18-1.88-4.56-3.07-6.82A28.92,28.92,0,0,0,270.26,78.6a.21.21,0,0,0-.24.34,31.53,31.53,0,0,1,5.11,5.22,28,28,0,0,1,3.58,6.22c.93,2.2,1.58,4.53,2.43,6.94a19.79,19.79,0,0,0,3.91,6.92,12.29,12.29,0,0,0,3.3,2.7,19.1,19.1,0,0,0,3.79,1.65,24.19,24.19,0,0,0,7.8,1.06,44,44,0,0,0,14.86-3,.22.22,0,0,0,.14-.19A.21.21,0,0,0,314.74,106.25Z"/><path class="cls-11" d="M178.27,60.76c5-.88,9.7-2.18,14.38-3a60.37,60.37,0,0,1,6.85-.93,11,11,0,0,1,6.23,1.09,16.91,16.91,0,0,1,5.13,4.43c1.51,1.85,3,3.93,4.72,5.8A28.88,28.88,0,0,0,228.39,76a.21.21,0,0,0,.15-.39,28.91,28.91,0,0,1-11.36-8.79c-1.47-1.89-2.7-4-4.14-6.08A19.89,19.89,0,0,0,207.47,55a12.43,12.43,0,0,0-3.89-1.75,18.67,18.67,0,0,0-4.08-.62,24.39,24.39,0,0,0-7.81,1,43.93,43.93,0,0,0-13.59,6.72.22.22,0,0,0-.08.22A.22.22,0,0,0,178.27,60.76Z"/><path class="cls-12" d="M320.73,88.28c-5,.89-9.7,2.19-14.38,3a60.24,60.24,0,0,1-6.86.93,10.93,10.93,0,0,1-6.22-1.1,16.8,16.8,0,0,1-5.13-4.44c-1.51-1.85-3-3.92-4.73-5.79a29.14,29.14,0,0,0-12.81-7.82.22.22,0,0,0-.26.12.21.21,0,0,0,.11.28,28.91,28.91,0,0,1,11.36,8.79c1.48,1.89,2.71,4,4.14,6.07A20.18,20.18,0,0,0,291.52,94a12.79,12.79,0,0,0,3.89,1.76,19.38,19.38,0,0,0,4.09.62,24.12,24.12,0,0,0,7.81-1,43.73,43.73,0,0,0,13.59-6.73.21.21,0,0,0,.08-.21A.22.22,0,0,0,320.73,88.28Z"/><path class="cls-13" d="M196.63,70.37a11,11,0,0,1,6.29-.56,16.84,16.84,0,0,1,6.1,3c1.94,1.39,3.91,3,6.07,4.37a29.1,29.1,0,0,0,14.39,4.24.21.21,0,0,0,.22-.18.21.21,0,0,0-.18-.24,29,29,0,0,1-13.24-5.56c-1.91-1.44-3.64-3.12-5.57-4.79a19.8,19.8,0,0,0-6.85-4,12.53,12.53,0,0,0-4.21-.7,19.17,19.17,0,0,0-4.11.46,24.4,24.4,0,0,0-7.28,3,43.69,43.69,0,0,0-11.38,10,.2.2,0,0,0,0,.22.22.22,0,0,0,.29.11c4.59-2.14,8.8-4.62,13.11-6.63A59.31,59.31,0,0,1,196.63,70.37Z"/><path class="cls-14" d="M321.86,69.39c-4.59,2.14-8.8,4.61-13.11,6.63a59.31,59.31,0,0,1-6.38,2.67,10.88,10.88,0,0,1-6.29.55,16.81,16.81,0,0,1-6.1-2.95c-1.94-1.4-3.91-3-6.07-4.37a29.11,29.11,0,0,0-14.39-4.25.23.23,0,0,0-.22.18.2.2,0,0,0,.18.24,29,29,0,0,1,13.24,5.57c1.91,1.43,3.64,3.12,5.57,4.79a20,20,0,0,0,6.85,4,12.27,12.27,0,0,0,4.21.69,19.17,19.17,0,0,0,4.11-.45,24.4,24.4,0,0,0,7.28-3,43.69,43.69,0,0,0,11.38-10,.21.21,0,0,0,0-.23A.22.22,0,0,0,321.86,69.39Z"/><path class="cls-15" d="M197.34,84.2A11,11,0,0,1,203.28,82a16.83,16.83,0,0,1,6.66,1.27c2.23.85,4.55,1.91,7,2.65a29,29,0,0,0,15,.38.23.23,0,0,0,.16-.23.21.21,0,0,0-.23-.19A28.81,28.81,0,0,1,217.63,84c-2.22-.9-4.32-2.08-6.62-3.19a20,20,0,0,0-7.67-2.12,12.43,12.43,0,0,0-4.24.43,19.61,19.61,0,0,0-3.85,1.5A24.36,24.36,0,0,0,189,85.36,43.83,43.83,0,0,0,180.59,98a.22.22,0,0,0,0,.22.23.23,0,0,0,.31,0c3.88-3.26,7.3-6.74,10.94-9.8A61.34,61.34,0,0,1,197.34,84.2Z"/><path class="cls-16" d="M301.64,64.86A11,11,0,0,1,295.71,67a17,17,0,0,1-6.66-1.28c-2.23-.85-4.55-1.9-7-2.65a29,29,0,0,0-15-.37.22.22,0,0,0-.16.23.21.21,0,0,0,.23.19,28.81,28.81,0,0,1,14.23,1.94c2.22.89,4.32,2.07,6.62,3.18a20,20,0,0,0,7.66,2.13,12.49,12.49,0,0,0,4.25-.43,19.85,19.85,0,0,0,3.85-1.5A24.36,24.36,0,0,0,310,63.7a43.83,43.83,0,0,0,8.4-12.62.22.22,0,0,0-.34-.25c-3.88,3.26-7.31,6.74-10.94,9.8A60,60,0,0,1,301.64,64.86Z"/><path class="cls-17" d="M206.8,93.74a16.89,16.89,0,0,1,6.76-.5c2.38.24,4.89.66,7.45.75a28.92,28.92,0,0,0,14.58-3.52.22.22,0,0,0,.1-.26.23.23,0,0,0-.28-.13,28.85,28.85,0,0,1-14.24,1.81c-2.38-.29-4.72-.89-7.23-1.36a19.86,19.86,0,0,0-7.95-.06,12.24,12.24,0,0,0-4,1.5,19.68,19.68,0,0,0-3.34,2.45,24.22,24.22,0,0,0-4.81,6.23A43.58,43.58,0,0,0,189,115a.2.2,0,0,0,.09.21.22.22,0,0,0,.3-.06c2.9-4.15,5.31-8.4,8-12.29a56.74,56.74,0,0,1,4.19-5.5A10.9,10.9,0,0,1,206.8,93.74Z"/><path class="cls-18" d="M292.2,55.32a16.92,16.92,0,0,1-6.77.49c-2.37-.24-4.88-.66-7.44-.75a29,29,0,0,0-14.58,3.53.21.21,0,0,0,.18.38,29,29,0,0,1,14.24-1.81c2.38.29,4.71.89,7.22,1.36a19.86,19.86,0,0,0,7.95.07,12.32,12.32,0,0,0,4-1.51,18.23,18.23,0,0,0,3.33-2.45,24.44,24.44,0,0,0,4.82-6.22A43.74,43.74,0,0,0,310,34.05a.2.2,0,0,0-.09-.21.21.21,0,0,0-.3.06c-2.91,4.14-5.32,8.39-8,12.28a59.88,59.88,0,0,1-4.19,5.51A11,11,0,0,1,292.2,55.32Z"/><path class="cls-19" d="M227,100.71a29.21,29.21,0,0,0,13.18-7.18.21.21,0,0,0,0-.28.22.22,0,0,0-.29,0,29,29,0,0,1-13.29,5.44c-2.38.33-4.79.36-7.33.55a19.89,19.89,0,0,0-7.7,2,12.46,12.46,0,0,0-3.46,2.48,19.55,19.55,0,0,0-2.58,3.23,24.13,24.13,0,0,0-3,7.26,43.66,43.66,0,0,0-1,15.13.23.23,0,0,0,.14.18.22.22,0,0,0,.28-.14c1.73-4.75,3-9.48,4.58-13.95a62.46,62.46,0,0,1,2.62-6.4,11,11,0,0,1,4.06-4.84,16.75,16.75,0,0,1,6.4-2.22C222,101.52,224.53,101.28,227,100.71Z"/><path class="cls-20" d="M272,48.35a29,29,0,0,0-13.18,7.18.21.21,0,0,0,0,.28.21.21,0,0,0,.29,0,31.69,31.69,0,0,1,6.36-3.58,28.2,28.2,0,0,1,6.93-1.85c2.38-.34,4.79-.36,7.33-.56a19.89,19.89,0,0,0,7.7-2,12.44,12.44,0,0,0,3.46-2.49,18.76,18.76,0,0,0,2.58-3.23,23.92,23.92,0,0,0,3-7.26,43.6,43.6,0,0,0,1-15.12.22.22,0,0,0-.42-.05c-1.73,4.76-3,9.49-4.58,14a60.66,60.66,0,0,1-2.62,6.4,10.94,10.94,0,0,1-4.06,4.85,16.93,16.93,0,0,1-6.4,2.23C277,47.53,274.48,47.78,272,48.35Z"/><path class="cls-21" d="M234.55,105.64A29.12,29.12,0,0,0,245.42,95.3a.2.2,0,0,0,0-.27.21.21,0,0,0-.3,0,29.1,29.1,0,0,1-11.44,8.68c-2.2.94-4.52,1.58-6.93,2.43a19.81,19.81,0,0,0-6.92,3.92,12.44,12.44,0,0,0-2.7,3.29,18.9,18.9,0,0,0-1.66,3.79,24.42,24.42,0,0,0-1.05,7.8,43.74,43.74,0,0,0,3,14.85.22.22,0,0,0,.19.14.21.21,0,0,0,.23-.2c.44-5,.41-9.93.82-14.66a59.2,59.2,0,0,1,.87-6.86,10.84,10.84,0,0,1,2.67-5.72,16.74,16.74,0,0,1,5.6-3.81C229.91,107.72,232.3,106.83,234.55,105.64Z"/><path class="cls-22" d="M264.45,43.42a29,29,0,0,0-10.87,10.34.2.2,0,0,0,0,.27.21.21,0,0,0,.3,0,29,29,0,0,1,11.44-8.68c2.2-.94,4.52-1.59,6.93-2.43A20,20,0,0,0,279.21,39a12.44,12.44,0,0,0,2.7-3.29,19.15,19.15,0,0,0,1.66-3.79,24.46,24.46,0,0,0,1.05-7.8,43.84,43.84,0,0,0-3-14.86.21.21,0,0,0-.19-.13.21.21,0,0,0-.23.2c-.44,5-.41,9.92-.82,14.66a59.3,59.3,0,0,1-.87,6.85,10.87,10.87,0,0,1-2.67,5.73,16.83,16.83,0,0,1-5.61,3.81C269.09,41.33,266.7,42.22,264.45,43.42Z"/><path class="cls-23" d="M250.94,95.63a.21.21,0,0,0-.12-.25.2.2,0,0,0-.27.1,31.67,31.67,0,0,1-3.72,6.29,28.35,28.35,0,0,1-5.08,5.07c-1.89,1.48-4,2.7-6.07,4.14a20,20,0,0,0-5.67,5.57,12.23,12.23,0,0,0-1.76,3.89,18.76,18.76,0,0,0-.62,4.09,24,24,0,0,0,1,7.8,43.71,43.71,0,0,0,6.72,13.59.21.21,0,0,0,.21.08.22.22,0,0,0,.18-.25c-.88-5-2.18-9.7-3-14.38a60.37,60.37,0,0,1-.93-6.85,10.82,10.82,0,0,1,1.09-6.22,16.82,16.82,0,0,1,4.44-5.13c1.85-1.51,3.92-3,5.79-4.73A29,29,0,0,0,250.94,95.63Z"/><path class="cls-24" d="M248.06,53.43a.21.21,0,0,0,.12.25.2.2,0,0,0,.27-.11,31.88,31.88,0,0,1,3.72-6.28,28,28,0,0,1,5.08-5.07c1.89-1.48,4-2.71,6.07-4.15A20.18,20.18,0,0,0,269,32.5a12.43,12.43,0,0,0,1.75-3.89,18.76,18.76,0,0,0,.62-4.09,24.12,24.12,0,0,0-1-7.81,43.55,43.55,0,0,0-6.72-13.58.22.22,0,0,0-.39.16c.88,5,2.18,9.7,3,14.38a60.54,60.54,0,0,1,.93,6.86,10.82,10.82,0,0,1-1.09,6.22,16.82,16.82,0,0,1-4.44,5.13c-1.85,1.52-3.92,3-5.79,4.74A28.93,28.93,0,0,0,248.06,53.43Z"/><path class="cls-25" d="M0,176.48H37.42v9.07h-27v16.71H34.76v8.15H10.39V228h28v9.06H0Z"/><path class="cls-25" d="M85.1,237.1H75.37L52.5,176.48H64.56l16.3,45.32,16.63-45.32h10.9Z"/><path class="cls-25" d="M123.47,176.48h37.42v9.07h-27v16.71h24.37v8.15H133.86V228h27.95v9.06H123.47Z"/><path class="cls-25" d="M193.15,237.1H182.76V176.48h18.13c13.3,0,23,7.65,23,21.62,0,7.9-3.58,14.06-9.23,17.8l14.8,21.2H216.27l-11.72-17.54a25.58,25.58,0,0,1-4.41.33h-7Zm5.41-24.94c9.81,0,14.39-4.74,14.39-13,0-8.56-4.83-13.63-14.39-13.63h-5.41v26.61Z"/><path class="cls-25" d="M255.11,198.27V237.1h-9.4V176.48h8.4l23.12,42.83,23.12-42.83H308V237.1h-9.65V198.44l-21,38.66h-1.24Z"/><path class="cls-25" d="M324.78,207c0-20.29,11-32,28.6-32,17.47,0,27.86,11,27.86,31.68s-12.06,31.6-28.77,31.6C334.67,238.27,324.78,227.62,324.78,207Zm45.82-.17c0-14.8-7-22.2-17.55-22.2s-17.63,7.4-17.63,22.2c0,15.06,6.74,21.79,17.71,21.79C363.45,228.62,370.6,221.55,370.6,206.83Z"/><path class="cls-25" d="M408,237.1H397.63V176.48h18.13c13.3,0,22.95,7.65,22.95,21.62,0,7.9-3.58,14.06-9.23,17.8l14.8,21.2H431.14l-11.72-17.54a25.58,25.58,0,0,1-4.41.33h-7Zm5.41-24.94c9.81,0,14.39-4.74,14.39-13,0-8.56-4.83-13.63-14.39-13.63H408v26.61Z"/><path class="cls-25" d="M460.66,176.48h37.43v9.07h-27v16.71h24.36v8.15H471.06V228H499v9.06H460.66Z"/></svg>
