<?xml version="1.0" standalone="no"?>
<!DOCTYPE svg PUBLIC "-//W3C//DTD SVG 20010904//EN"
 "http://www.w3.org/TR/2001/REC-SVG-20010904/DTD/svg10.dtd">
<svg version="1.0" xmlns="http://www.w3.org/2000/svg" viewBox="0 0 300 300" preserveAspectRatio="xMidYMid meet">
    <g transform="translate(0.000000,219.000000) scale(0.100000,-0.100000)"
    fill="#000000" stroke="none">
        <path d="M1376 1383 c-3 -4 -6 -50 -6 -104 l0 -98 -102 -3 -103 -3 0 -85 0
        -85 102 -3 102 -3 3 -102 3 -102 85 0 85 0 3 102 3 102 102 3 102 3 0 85 0 85
        -102 3 -102 3 -3 102 -3 102 -81 2 c-45 1 -85 -1 -88 -4z"/>
    </g>
</svg>


